<svg xmlns="http://www.w3.org/2000/svg" fill="none" viewBox="0 0 57 71">
<path fill="#ffffff" d="M49.78 21.422h-19.7v-9.45a6.08 6.08 0 1 0-3 0v9.45H7.39a6.5 6.5 0 0 0-6.5 6.49v28.66a6.51 6.51 0 0 0 6.5 6.5h12.62l6.8 6.8a2.51 2.51 0 0 0 3.54 0l6.8-6.8h12.63a6.51 6.51 0 0 0 6.5-6.5v-28.66a6.5 6.5 0 0 0-6.5-6.49zm3.5 35.15a3.5 3.5 0 0 1-3.5 3.5H36.53a1.5 1.5 0 0 0-1.06.44l-6.89 6.89-6.89-6.89a1.5 1.5 0 0 0-1.06-.44H7.39a3.5 3.5 0 0 1-3.5-3.5v-28.66a3.5 3.5 0 0 1 3.5-3.49h42.39a3.5 3.5 0 0 1 3.5 3.49v28.66z"/>
<path fill="#ffffff" d="M39.78 34.032h-22.4a8.22 8.22 0 1 0 0 16.43h22.4a8.22 8.22 0 0 0 0-16.43zm-22.52 12.33a4.12 4.12 0 1 1 4.12-4.12 4.107 4.107 0 0 1-4.11 4.12h-.01zm11.31 0a4.12 4.12 0 1 1 .01 0h-.01zm11.32 0a4.12 4.12 0 1 1 4.12-4.12 4.107 4.107 0 0 1-4.11 4.12h-.01z"/>
</svg>